<svg width="171" height="72" viewBox="0 0 171 72" fill="none" xmlns="http://www.w3.org/2000/svg">
<g clip-path="url(#clip0_4931_1722)">
<path d="M26.0923 67.1682C24.8817 68.4827 23.4841 69.5478 21.8891 70.3583C20.294 71.174 18.6055 71.6832 16.8182 71.8962C15.4466 72.0572 14.1061 72.0365 12.7968 71.8286C11.4876 71.6208 10.2354 71.2571 9.05085 70.7376C7.86626 70.218 6.7648 69.553 5.74128 68.7477C4.71776 67.9424 3.81892 67.0227 3.0344 65.9888C2.24987 64.9549 1.61081 63.8275 1.10165 62.6013C0.597681 61.3752 0.265165 60.0763 0.104103 58.7047C-0.0569593 57.333 -0.0361771 55.9874 0.171645 54.6729C0.379467 53.3532 0.743156 52.1011 1.26271 50.9165C1.78227 49.7319 2.4473 48.6305 3.25261 47.6069C4.05792 46.5834 4.97753 45.6846 6.01145 44.9001C7.04536 44.1207 8.1728 43.4765 9.39895 42.9673C10.6251 42.4633 11.924 42.1308 13.2956 41.9698C15.0829 41.762 16.8442 41.8607 18.5847 42.2763C20.32 42.692 21.9306 43.4037 23.4114 44.4169L20.9383 49.8151C19.9823 48.9994 18.9016 48.4175 17.6859 48.0642C16.4701 47.7109 15.2336 47.607 13.971 47.7524C12.7085 47.8979 11.5291 48.2824 10.4692 48.9006C9.40934 49.5137 8.51571 50.2827 7.77794 51.2075C7.04017 52.1323 6.49983 53.1818 6.14653 54.3612C5.79324 55.5406 5.69452 56.7615 5.84 58.024C5.98547 59.2866 6.36994 60.4452 6.98302 61.4947C7.59609 62.5442 8.37023 63.4378 9.30023 64.1756C10.2302 64.9133 11.2849 65.4537 12.4539 65.807C13.6281 66.1603 14.8491 66.259 16.1272 66.1083C17.4053 65.9577 18.5691 65.5732 19.6706 64.9445C20.7668 64.3159 21.6864 63.5002 22.4242 62.487L26.0819 67.1682H26.0923Z" fill="#FFFAF3"/>
<path d="M45.4509 54.9846C45.4509 56.6056 45.16 58.1227 44.5781 59.5203C43.9962 60.9231 43.2064 62.1337 42.2037 63.152C41.201 64.1755 40.0268 64.9808 38.6811 65.5679C37.3355 66.155 35.8911 66.4512 34.348 66.4512C32.8049 66.4512 31.3814 66.155 30.0357 65.5679C28.6901 64.9808 27.5107 64.1755 26.5027 63.152C25.4948 62.1285 24.6999 60.9179 24.118 59.5203C23.5361 58.1175 23.2451 56.6056 23.2451 54.9846C23.2451 53.3636 23.5361 51.8049 24.118 50.3969C24.6999 48.9889 25.4948 47.7784 26.5027 46.7548C27.5107 45.7313 28.6901 44.9312 30.0357 44.3493C31.3814 43.7674 32.8205 43.4764 34.348 43.4764C35.8755 43.4764 37.3355 43.7518 38.6811 44.2973C40.0268 44.8429 41.201 45.6222 42.2037 46.6301C43.2064 47.6381 43.9962 48.8486 44.5781 50.2618C45.16 51.675 45.4509 53.2493 45.4509 54.9794V54.9846ZM39.8709 54.9846C39.8709 54.091 39.7254 53.2857 39.4345 52.5583C39.1435 51.8361 38.7487 51.2126 38.2447 50.6931C37.7459 50.1735 37.1588 49.7735 36.4886 49.4981C35.8184 49.2227 35.1066 49.0824 34.348 49.0824C33.5895 49.0824 32.8777 49.2227 32.2074 49.4981C31.5372 49.7735 30.9553 50.1735 30.4617 50.6931C29.9682 51.2126 29.5785 51.8361 29.2927 52.5583C29.007 53.2805 28.8667 54.091 28.8667 54.9846C28.8667 55.8263 29.007 56.6004 29.2927 57.3174C29.5785 58.0344 29.963 58.6579 30.4617 59.1826C30.9553 59.7126 31.5372 60.1282 32.2074 60.4295C32.8777 60.7309 33.5895 60.8867 34.348 60.8867C35.1066 60.8867 35.8184 60.7465 36.4886 60.4607C37.1588 60.175 37.7459 59.7801 38.2447 59.2657C38.7435 58.7514 39.1383 58.1279 39.4345 57.4005C39.7254 56.668 39.8709 55.8626 39.8709 54.9846Z" fill="#FFFAF3"/>
<path d="M65.3655 54.9846C65.3655 56.6056 65.0745 58.1227 64.4926 59.5203C63.9107 60.9231 63.121 62.1337 62.1182 63.152C61.1155 64.1755 59.9413 64.9808 58.5957 65.5679C57.25 66.155 55.8057 66.4512 54.2626 66.4512C52.7195 66.4512 51.2959 66.155 49.9503 65.5679C48.6046 64.9808 47.4252 64.1755 46.4173 63.152C45.4093 62.1285 44.6144 60.9179 44.0325 59.5203C43.4506 58.1175 43.1597 56.6056 43.1597 54.9846C43.1597 53.3636 43.4506 51.8049 44.0325 50.3969C44.6144 48.9889 45.4093 47.7784 46.4173 46.7548C47.4252 45.7313 48.6046 44.9312 49.9503 44.3493C51.2959 43.7674 52.7351 43.4764 54.2626 43.4764C55.7901 43.4764 57.25 43.7518 58.5957 44.2973C59.9413 44.8429 61.1155 45.6222 62.1182 46.6301C63.121 47.6381 63.9107 48.8486 64.4926 50.2618C65.0745 51.675 65.3655 53.2493 65.3655 54.9794V54.9846ZM59.7854 54.9846C59.7854 54.091 59.64 53.2857 59.349 52.5583C59.0581 51.8361 58.6632 51.2126 58.1592 50.6931C57.6605 50.1735 57.0734 49.7735 56.4031 49.4981C55.7329 49.2227 55.0211 49.0824 54.2626 49.0824C53.504 49.0824 52.7922 49.2227 52.122 49.4981C51.4518 49.7735 50.8699 50.1735 50.3763 50.6931C49.8827 51.2126 49.493 51.8361 49.2073 52.5583C48.9215 53.2805 48.7813 54.091 48.7813 54.9846C48.7813 55.8263 48.9215 56.6004 49.2073 57.3174C49.493 58.0344 49.8775 58.6579 50.3763 59.1826C50.8699 59.7126 51.4518 60.1282 52.122 60.4295C52.7922 60.7309 53.504 60.8867 54.2626 60.8867C55.0211 60.8867 55.7329 60.7465 56.4031 60.4607C57.0734 60.175 57.6605 59.7801 58.1592 59.2657C58.658 58.7514 59.0529 58.1279 59.349 57.4005C59.64 56.668 59.7854 55.8626 59.7854 54.9846Z" fill="#FFFAF3"/>
<path d="M72.0366 66.046H66.4565V35.6624H72.0366V54.8236L80.2975 44.3493H86.6724L79.4662 53.4L86.6724 66.046H80.2975L75.8917 58.1487L72.0366 63.2611V66.0408V66.046Z" fill="#FFFAF3"/>
<path d="M92.9021 38.4056C92.9021 38.9199 92.8034 39.3979 92.6059 39.8448C92.4085 40.2916 92.1435 40.6812 91.8058 41.0138C91.4681 41.3463 91.0733 41.6112 90.616 41.8035C90.164 42.0009 89.6808 42.0996 89.1665 42.0996C88.6521 42.0996 88.1689 42.0009 87.7169 41.8035C87.2649 41.6061 86.87 41.3463 86.5375 41.0138C86.205 40.6812 85.94 40.2916 85.7478 39.8448C85.5504 39.3979 85.4517 38.9199 85.4517 38.4056C85.4517 37.8912 85.5504 37.4288 85.7478 36.9768C85.9452 36.5248 86.205 36.1299 86.5375 35.7974C86.87 35.4649 87.2597 35.1999 87.7169 35.0077C88.1689 34.8103 88.6521 34.7115 89.1665 34.7115C89.6808 34.7115 90.164 34.8103 90.616 35.0077C91.0681 35.2051 91.4629 35.4701 91.8058 35.7974C92.1435 36.1299 92.4137 36.5196 92.6059 36.9768C92.8034 37.4288 92.9021 37.9068 92.9021 38.4056ZM91.9461 66.0459H86.3661V44.3077H91.9461V66.0459Z" fill="#FFFAF3"/>
<path d="M99.2147 66.046H93.6763V44.3077H95.0167L96.8456 46.4171C97.7392 45.6066 98.7523 44.978 99.8798 44.5416C101.007 44.0999 102.192 43.8817 103.423 43.8817C104.748 43.8817 106 44.1363 107.18 44.6403C108.359 45.1442 109.382 45.8456 110.266 46.7289C111.144 47.6173 111.84 48.6512 112.344 49.8358C112.853 51.0204 113.102 52.2829 113.102 53.6234V66.046H107.564V53.6234C107.564 53.0571 107.455 52.5167 107.242 52.0076C107.024 51.4984 106.728 51.0568 106.348 50.6775C105.969 50.2982 105.527 50.0021 105.029 49.7839C104.53 49.5657 103.995 49.4617 103.423 49.4617C102.852 49.4617 102.296 49.5708 101.781 49.7839C101.267 50.0021 100.82 50.2982 100.441 50.6775C100.062 51.0568 99.7655 51.4984 99.5472 52.0076C99.329 52.5167 99.2251 53.0519 99.2251 53.6234V66.046H99.2147Z" fill="#FFFAF3"/>
<path d="M120.08 40.3539C120.08 40.9514 120.022 41.5904 119.908 42.2711C119.794 42.9569 119.612 43.6323 119.363 44.3025C119.113 44.9727 118.786 45.6118 118.381 46.2197C117.975 46.8276 117.487 47.3419 116.921 47.7628L114.728 46.2197C115.092 45.7885 115.372 45.3728 115.559 44.9831C115.747 44.5935 115.897 44.1986 116.006 43.8037C115.601 43.7362 115.222 43.6011 114.868 43.3985C114.515 43.1959 114.214 42.9413 113.964 42.6399C113.715 42.3334 113.512 41.9853 113.367 41.5956C113.216 41.206 113.144 40.7903 113.144 40.3591C113.144 39.9019 113.237 39.4603 113.419 39.0394C113.601 38.6186 113.85 38.2497 114.172 37.9328C114.494 37.6158 114.853 37.3665 115.269 37.1794C115.679 36.9976 116.126 36.9041 116.599 36.9041C117.071 36.9041 117.544 36.9976 117.97 37.1794C118.396 37.3613 118.765 37.6106 119.077 37.9328C119.389 38.2497 119.633 38.6186 119.82 39.0394C120.002 39.4603 120.095 39.8967 120.095 40.3591L120.08 40.3539Z" fill="#FFFAF3"/>
<path d="M144.946 54.4183C144.946 56.0289 144.639 57.5409 144.031 58.954C143.424 60.3672 142.592 61.5986 141.538 62.6481C140.483 63.6976 139.246 64.5237 137.833 65.1368C136.42 65.7446 134.908 66.0512 133.297 66.0512C131.687 66.0512 130.175 65.7446 128.762 65.1368C127.348 64.5289 126.117 63.6976 125.068 62.6481C124.018 61.5986 123.192 60.3672 122.579 58.954C121.971 57.5409 121.665 56.0289 121.665 54.4183V36.9457H127.468V54.4183C127.468 55.2184 127.619 55.9666 127.925 56.6732C128.232 57.3746 128.647 57.9929 129.172 58.5176C129.697 59.0424 130.32 59.4632 131.027 59.7646C131.734 60.0659 132.492 60.2218 133.292 60.2218C134.092 60.2218 134.846 60.0711 135.557 59.7646C136.269 59.458 136.888 59.0424 137.412 58.5176C137.937 57.9929 138.358 57.3746 138.659 56.6732C138.966 55.9718 139.116 55.2184 139.116 54.4183V36.9457H144.941V54.4183H144.946Z" fill="#FFFAF3"/>
<path d="M153.332 66.0459H147.507V36.9404H159.156C160.226 36.9404 161.255 37.0807 162.242 37.3561C163.229 37.6314 164.154 38.0263 165.011 38.5355C165.868 39.0446 166.653 39.6525 167.365 40.3643C168.077 41.0761 168.684 41.8606 169.194 42.7283C169.703 43.5959 170.092 44.5207 170.373 45.5079C170.648 46.4951 170.789 47.5238 170.789 48.5941C170.789 50.1891 170.482 51.6958 169.874 53.109C169.266 54.5222 168.435 55.7587 167.38 56.8134C166.326 57.8681 165.089 58.6994 163.676 59.3073C162.263 59.9152 160.756 60.2217 159.161 60.2217H153.337V66.0459H153.332ZM153.332 42.7698V54.4183H159.156C159.956 54.4183 160.704 54.2676 161.411 53.9611C162.112 53.6545 162.73 53.2389 163.255 52.7141C163.78 52.1894 164.201 51.5659 164.502 50.8593C164.803 50.1527 164.959 49.3942 164.959 48.5941C164.959 47.7939 164.809 47.0406 164.502 46.3288C164.195 45.617 163.78 44.9987 163.255 44.474C162.73 43.9492 162.112 43.5284 161.411 43.227C160.709 42.9205 159.956 42.7698 159.156 42.7698H153.332Z" fill="#FFFAF3"/>
<path d="M20.4292 22.98C20.4292 22.98 25.8793 25.3699 37.2992 13.3007C48.719 1.23139 53.2547 5.96454 55.3745 8.89483C57.4943 11.8199 57.4995 18.1533 53.7587 23.2138C54.2834 17.9091 54.5017 13.4305 53.2807 12.4953C53.7535 14.6879 53.2807 21.4992 50.1686 23.0215C50.7089 17.6441 48.4852 14.5632 46.9109 13.815C48.4852 16.6778 47.8929 23.1982 47.8929 23.1982C47.8929 23.1982 36.977 22.2942 27.5627 32.2229C38.25 26.6584 48.4748 25.7544 54.0652 28.3054C54.6004 32.0306 55.4265 35.2675 55.4265 35.2675C55.4265 35.2675 40.7386 31.589 28.2225 42.8114C40.8269 36.3949 51.3168 37.408 58.3152 38.7381C56.185 27.1884 56.1071 26.8403 56.1071 26.8403C56.1071 26.8403 66.5294 9.76249 57.619 2.8472C48.7034 -4.06808 41.4192 2.8472 35.6574 10.7704C29.8955 18.6936 24.0661 22.98 20.4292 22.9852V22.98Z" fill="#F0633C"/>
<path d="M26.2533 17.0102C26.2533 17.0102 14.2723 15.0463 13.1293 25.5621C11.9863 36.0779 22.9697 34.857 22.9697 34.857L24.7777 42.2606C24.7777 42.2606 33.9115 34.7738 41.071 34.3478C41.071 34.3478 35.1221 33.2255 26.0299 38.1613C24.5387 32.4462 24.3361 31.8072 24.3361 31.8072C24.3361 31.8072 18.4236 33.9893 15.9609 28.1079C13.4982 22.2266 18.4703 16.8232 26.2585 17.0102H26.2533Z" fill="#F0633C"/>
</g>
<defs>
<clipPath id="clip0_4931_1722">
<rect width="170.783" height="72" fill="white"/>
</clipPath>
</defs>
</svg>
